<svg width="24" height="24" viewBox="0 0 24 24" fill="none" xmlns="http://www.w3.org/2000/svg">
  <!-- Minimalist elegant tree -->
  
  <!-- Trunk -->
  <rect x="11.2" y="16" width="1.6" height="6" rx="0.8" fill="currentColor" opacity="0.9"/>
  
  <!-- Root indicator -->
  <ellipse cx="12" cy="21.5" rx="2" ry="0.5" fill="currentColor" opacity="0.5"/>
  
  <!-- Main branching point -->
  <circle cx="12" cy="16" r="0.8" fill="currentColor"/>
  
  <!-- Primary branches with elegant curves -->
  <path d="M12 16 Q9 13 6 10" stroke="currentColor" stroke-width="2" fill="none" opacity="0.8" stroke-linecap="round"/>
  <path d="M12 16 Q15 13 18 10" stroke="currentColor" stroke-width="2" fill="none" opacity="0.8" stroke-linecap="round"/>
  <path d="M12 16 Q10 12 8 8" stroke="currentColor" stroke-width="1.8" fill="none" opacity="0.75" stroke-linecap="round"/>
  <path d="M12 16 Q14 12 16 8" stroke="currentColor" stroke-width="1.8" fill="none" opacity="0.75" stroke-linecap="round"/>
  <path d="M12 16 L12 6" stroke="currentColor" stroke-width="2.2" fill="none" opacity="0.85" stroke-linecap="round"/>
  
  <!-- Secondary branches -->
  <path d="M7 11 Q5 9 3 7" stroke="currentColor" stroke-width="1.4" fill="none" opacity="0.6" stroke-linecap="round"/>
  <path d="M17 11 Q19 9 21 7" stroke="currentColor" stroke-width="1.4" fill="none" opacity="0.6" stroke-linecap="round"/>
  <path d="M9 9 Q7 7 5 5" stroke="currentColor" stroke-width="1.2" fill="none" opacity="0.55" stroke-linecap="round"/>
  <path d="M15 9 Q17 7 19 5" stroke="currentColor" stroke-width="1.2" fill="none" opacity="0.55" stroke-linecap="round"/>
  <path d="M12 6 Q10 4 8 2" stroke="currentColor" stroke-width="1" fill="none" opacity="0.5" stroke-linecap="round"/>
  <path d="M12 6 Q14 4 16 2" stroke="currentColor" stroke-width="1" fill="none" opacity="0.5" stroke-linecap="round"/>
  
  <!-- Leaf nodes with perfect circles -->
  <circle cx="6" cy="10" r="1.5" fill="currentColor" opacity="0.8"/>
  <circle cx="18" cy="10" r="1.5" fill="currentColor" opacity="0.8"/>
  <circle cx="8" cy="8" r="1.2" fill="currentColor" opacity="0.7"/>
  <circle cx="16" cy="8" r="1.2" fill="currentColor" opacity="0.7"/>
  <circle cx="12" cy="6" r="1.8" fill="currentColor" opacity="0.85"/>
  <circle cx="3" cy="7" r="1" fill="currentColor" opacity="0.6"/>
  <circle cx="21" cy="7" r="1" fill="currentColor" opacity="0.6"/>
  <circle cx="5" cy="5" r="0.8" fill="currentColor" opacity="0.55"/>
  <circle cx="19" cy="5" r="0.8" fill="currentColor" opacity="0.55"/>
  <circle cx="8" cy="2" r="0.6" fill="currentColor" opacity="0.5"/>
  <circle cx="16" cy="2" r="0.6" fill="currentColor" opacity="0.5"/>
</svg>
